<?xml version="1.0" encoding="utf-8"?>
<!-- Generator: Adobe Illustrator 19.0.0, SVG Export Plug-In . SVG Version: 6.00 Build 0)  -->
<svg version="1.1" id="Layer_1" xmlns="http://www.w3.org/2000/svg" xmlns:xlink="http://www.w3.org/1999/xlink" x="0px" y="0px"
	 viewBox="0 0 145.4 38.9" style="enable-background:new 0 0 145.4 38.9;" xml:space="preserve">
<style type="text/css">
	.st0{fill:#525E66;}
</style>
<path class="st0" d="M26.3,0.4l-3.8,0c-0.7,0-1.3,0.6-1.3,1.3v0.8L21,2.4C19,0.8,16.6,0,13.7,0C9.6,0,6.2,1.5,3.7,4.3
	C1.2,7,0,10.4,0,14.5c0,4,1.2,7.4,3.7,10.2c2.5,2.8,5.8,4.2,9.8,4.2c3,0,5.5-0.8,7.6-2.3l0.2-0.1v0.8c0,0.7,0.6,1.3,1.3,1.3h3.8
	c0.7,0,1.3-0.6,1.3-1.3V1.7C27.6,1,27,0.4,26.3,0.4 M19.4,20.4c-1.3,1.6-3.1,2.4-5.5,2.4c-2.3,0-4.1-0.8-5.6-2.4c-1.4-1.6-2-3.5-2-6
	c0-2.4,0.7-4.4,2-6c1.4-1.6,3.3-2.4,5.6-2.4c2.4,0,4.1,0.8,5.5,2.4c1.3,1.6,2,3.5,2,6C21.4,16.9,20.8,18.9,19.4,20.4"/>
<path class="st0" d="M60.8,6.1c1.4,0,2.6,0.5,3.5,1.5c1,1.1,1.4,2.5,1.4,4.3v15.3c0,0.7,0.6,1.3,1.3,1.3h3.8c0.7,0,1.3-0.6,1.3-1.3
	V11.8c0-3.4-1.1-6.2-3.2-8.5l0,0c-1-1-2.1-1.8-3.4-2.4c-1.3-0.6-2.6-0.8-4-0.8c-1.4,0-2.6,0.2-3.7,0.6C55.8,1.4,54.2,2.5,53,4
	l-0.1,0.1L52.8,4c-0.7-1-1.6-1.8-2.6-2.4c-1.6-1-3.4-1.5-5.3-1.5c-2.4,0-4.5,0.6-6.2,1.9l-0.2,0.1V1.7c0-0.7-0.6-1.3-1.3-1.3h-3.8
	c-0.7,0-1.3,0.6-1.3,1.3v25.4c0,0.7,0.6,1.3,1.3,1.3h3.8c0.7,0,1.3-0.6,1.3-1.3V12c0-1.9,0.5-3.3,1.6-4.3l0,0c1-1,2.3-1.5,3.9-1.5
	c1.4,0,2.6,0.5,3.5,1.5c1,1.1,1.4,2.5,1.4,4.3v15.3c0,0.7,0.6,1.3,1.3,1.3H54c0.7,0,1.3-0.6,1.3-1.3V11.9c0-1.9,0.5-3.3,1.6-4.3
	L57,7.7l-0.1-0.1C58,6.6,59.3,6.1,60.8,6.1"/>
<path class="st0" d="M101.2,0.4h-3.8c-0.7,0-1.3,0.6-1.3,1.3v0.8l-0.2-0.1C94,0.8,91.5,0,88.6,0c-4.1,0-7.5,1.4-10.1,4.2
	c-2.4,2.7-3.6,6.2-3.6,10.2c0,4,1.2,7.4,3.6,10.2c2.5,2.8,5.8,4.2,9.8,4.2c3,0,5.5-0.8,7.6-2.3l0.2-0.1v0.8c0,0.7,0.6,1.3,1.3,1.3
	h3.8c0.7,0,1.3-0.6,1.3-1.3V1.7C102.5,1,101.9,0.4,101.2,0.4 M94.4,20.4c-1.3,1.6-3.1,2.4-5.5,2.4c-2.3,0-4.2-0.8-5.6-2.4
	c-1.4-1.6-2-3.5-2-6c0-2.4,0.7-4.4,2-6c1.4-1.6,3.3-2.4,5.6-2.4c2.3,0,4.1,0.8,5.5,2.4c1.3,1.6,2,3.5,2,6
	C96.3,16.9,95.7,18.8,94.4,20.4"/>
<path class="st0" d="M132.5,0.4l-3.8,0c-0.7,0-1.3,0.6-1.3,1.3v0.7l-0.2-0.1c-2-1.5-4.4-2.3-7.3-2.3c-4.2,0-7.6,1.4-10.1,4.2
	c-2.4,2.7-3.7,6.1-3.7,10c0,4,1.2,7.4,3.7,10c2.5,2.8,5.8,4.2,9.8,4.2c3,0,5.5-0.8,7.5-2.4l0.2-0.1v0.2c0,2.3-0.5,4-1.6,5.1
	c-1.1,1.1-2.9,1.6-5.4,1.6c-4.9,0-5.8-2.4-6.2-3.2c-0.2-0.5-0.7-0.8-1.2-0.8l-4.2,0c-0.4,0-0.8,0.2-1,0.5c-0.2,0.3-0.3,0.8-0.2,1.2
	c0.8,2.5,2.3,4.5,4.5,6.1c2.2,1.5,5.2,2.3,8.9,2.3c3.8,0,6.9-1.1,9.2-3.2c2.3-2.2,3.5-5.3,3.5-9.3V1.7C133.8,1,133.2,0.4,132.5,0.4
	 M125.7,20.1c-0.7,0.7-1.4,1.3-2.3,1.7c-0.9,0.4-2,0.6-3.2,0.6c-2.4,0-4.2-0.8-5.6-2.3c-1.4-1.6-2-3.5-2-5.8c0-2.4,0.7-4.3,2-5.8
	c1.4-1.6,3.2-2.3,5.6-2.3c2.3,0,4.1,0.8,5.5,2.3c1.3,1.5,2,3.4,2,5.9S127,18.5,125.7,20.1"/>
<path class="st0" d="M144.1,0.2h-3.8c-0.7,0-1.3,0.6-1.3,1.3v25c0,0.7,0.6,1.3,1.3,1.3l3.8,0c0.7,0,1.3-0.6,1.3-1.3v-25
	C145.4,0.7,144.8,0.2,144.1,0.2"/>
</svg>
